<?xml version='1.0' encoding='utf-8'?>
<svg xmlns="http://www.w3.org/2000/svg" width="640" height="400" viewBox="0 0 640 400">
  <rect width="640" height="400" fill="white" rx="4" />
  <line x1="70" y1="340.0" x2="610" y2="340.0" stroke="#E0E0E0" stroke-width="1" />
  <text x="62" y="344.0" text-anchor="end" font-size="11" fill="#666">0.00</text>
  <line x1="70" y1="280.0" x2="610" y2="280.0" stroke="#E0E0E0" stroke-width="1" />
  <text x="62" y="284.0" text-anchor="end" font-size="11" fill="#666">0.05</text>
  <line x1="70" y1="220.0" x2="610" y2="220.0" stroke="#E0E0E0" stroke-width="1" />
  <text x="62" y="224.0" text-anchor="end" font-size="11" fill="#666">0.10</text>
  <line x1="70" y1="160.0" x2="610" y2="160.0" stroke="#E0E0E0" stroke-width="1" />
  <text x="62" y="164.0" text-anchor="end" font-size="11" fill="#666">0.15</text>
  <line x1="70" y1="100.0" x2="610" y2="100.0" stroke="#E0E0E0" stroke-width="1" />
  <text x="62" y="104.0" text-anchor="end" font-size="11" fill="#666">0.20</text>
  <line x1="70" y1="40.0" x2="610" y2="40.0" stroke="#E0E0E0" stroke-width="1" />
  <text x="62" y="44.0" text-anchor="end" font-size="11" fill="#666">0.25</text>
  <text x="70.0" y="360" text-anchor="middle" font-size="11" fill="#666">5</text>
  <text x="154.375" y="360" text-anchor="middle" font-size="11" fill="#666">10</text>
  <text x="238.75" y="360" text-anchor="middle" font-size="11" fill="#666">15</text>
  <text x="323.125" y="360" text-anchor="middle" font-size="11" fill="#666">20</text>
  <text x="407.5" y="360" text-anchor="middle" font-size="11" fill="#666">25</text>
  <text x="610.0" y="360" text-anchor="middle" font-size="11" fill="#666">37</text>
  <line x1="70" y1="40" x2="70" y2="340" stroke="#333" stroke-width="1.5" />
  <line x1="70" y1="340" x2="610" y2="340" stroke="#333" stroke-width="1.5" />
  <text x="320.0" y="390" text-anchor="middle" font-size="13" fill="#333">Training Budget (examples)</text>
  <g transform="translate(15, 200.0) rotate(-90)">
    <text text-anchor="middle" font-size="13" fill="#333">Test Exact Match</text>
  </g>
  <text x="320.0" y="22" text-anchor="middle" font-size="15" font-weight="bold" fill="#333">Learning Curves — Test EM by Strategy (with 95% Bootstrap CI)</text>
  <polygon points="70.0,220.0 154.375,220.0 238.75,100.0 323.125,100.0 407.5,220.0 610.0,220.0 610.0,220.0 407.5,340.0 323.125,340.0 238.75,340.0 154.375,340.0 70.0,340.0" fill="#228833" fill-opacity="0.15" stroke="none" />
  <polyline points="70.0,259.9996 154.375,259.9996 238.75,180.00039999999998 323.125,180.00039999999998 407.5,259.9996 610.0,220.0" fill="none" stroke="#228833" stroke-width="2" />
  <circle cx="70.0" cy="259.9996" r="3.5" fill="#228833" stroke="white" stroke-width="1" />
  <circle cx="154.375" cy="259.9996" r="3.5" fill="#228833" stroke="white" stroke-width="1" />
  <circle cx="238.75" cy="180.00039999999998" r="3.5" fill="#228833" stroke="white" stroke-width="1" />
  <circle cx="323.125" cy="180.00039999999998" r="3.5" fill="#228833" stroke="white" stroke-width="1" />
  <circle cx="407.5" cy="259.9996" r="3.5" fill="#228833" stroke="white" stroke-width="1" />
  <circle cx="610.0" cy="220.0" r="3.5" fill="#228833" stroke="white" stroke-width="1" />
  <rect x="480" y="44" width="12" height="12" fill="#228833" rx="2" />
  <text x="498" y="54" font-size="11" fill="#333">diversity</text>
  <polygon points="70.0,100.0 154.375,220.0 238.75,220.0 323.125,220.0 407.5,220.0 610.0,220.0 610.0,220.0 407.5,340.0 323.125,340.0 238.75,340.0 154.375,340.0 70.0,340.0" fill="#4477AA" fill-opacity="0.15" stroke="none" />
  <polyline points="70.0,220.0 154.375,300.0004 238.75,259.9996 323.125,259.9996 407.5,259.9996 610.0,220.0" fill="none" stroke="#4477AA" stroke-width="2" />
  <circle cx="70.0" cy="220.0" r="3.5" fill="#4477AA" stroke="white" stroke-width="1" />
  <circle cx="154.375" cy="300.0004" r="3.5" fill="#4477AA" stroke="white" stroke-width="1" />
  <circle cx="238.75" cy="259.9996" r="3.5" fill="#4477AA" stroke="white" stroke-width="1" />
  <circle cx="323.125" cy="259.9996" r="3.5" fill="#4477AA" stroke="white" stroke-width="1" />
  <circle cx="407.5" cy="259.9996" r="3.5" fill="#4477AA" stroke="white" stroke-width="1" />
  <circle cx="610.0" cy="220.0" r="3.5" fill="#4477AA" stroke="white" stroke-width="1" />
  <rect x="480" y="62" width="12" height="12" fill="#4477AA" rx="2" />
  <text x="498" y="72" font-size="11" fill="#333">random</text>
  <polygon points="70.0,340.0 154.375,340.0 238.75,340.0 323.125,340.0 407.5,340.0 610.0,220.0 610.0,220.0 407.5,340.0 323.125,340.0 238.75,340.0 154.375,340.0 70.0,340.0" fill="#EE6677" fill-opacity="0.15" stroke="none" />
  <polyline points="70.0,340.0 154.375,340.0 238.75,340.0 323.125,340.0 407.5,340.0 610.0,220.0" fill="none" stroke="#EE6677" stroke-width="2" />
  <circle cx="70.0" cy="340.0" r="3.5" fill="#EE6677" stroke="white" stroke-width="1" />
  <circle cx="154.375" cy="340.0" r="3.5" fill="#EE6677" stroke="white" stroke-width="1" />
  <circle cx="238.75" cy="340.0" r="3.5" fill="#EE6677" stroke="white" stroke-width="1" />
  <circle cx="323.125" cy="340.0" r="3.5" fill="#EE6677" stroke="white" stroke-width="1" />
  <circle cx="407.5" cy="340.0" r="3.5" fill="#EE6677" stroke="white" stroke-width="1" />
  <circle cx="610.0" cy="220.0" r="3.5" fill="#EE6677" stroke="white" stroke-width="1" />
  <rect x="480" y="80" width="12" height="12" fill="#EE6677" rx="2" />
  <text x="498" y="90" font-size="11" fill="#333">uncertainty</text>
</svg>